<svg width="248" height="135" viewBox="0 0 248 135" fill="none" xmlns="http://www.w3.org/2000/svg">
<path d="M11.3391 101.936C9.32313 102 7.77113 102.768 6.68313 104.24C5.62713 105.712 5.09913 108.256 5.09913 111.872C5.09913 113.056 5.21113 113.888 5.43513 114.368C5.65913 114.816 5.77113 115.072 5.77113 115.136C4.04313 115.136 2.74713 114.784 1.88313 114.08C1.05113 113.344 0.635125 112.144 0.635125 110.48C0.635125 108.208 1.19513 106.144 2.31513 104.288C3.43513 102.4 5.21113 100.88 7.64313 99.728C10.1071 98.576 13.2271 98 17.0031 98C17.7711 98 18.7951 98.08 20.0751 98.24C22.3791 98.464 24.0111 98.576 24.9711 98.576C26.6671 98.576 28.1071 98.384 29.2911 98C29.1951 98.288 29.0191 98.928 28.7631 99.92C28.5071 100.88 28.0431 101.712 27.3711 102.416C26.7311 103.088 25.8511 103.536 24.7311 103.76C22.8431 103.76 20.6031 103.456 18.0111 102.848L15.9951 112.4H23.0031L22.2351 115.952H15.2271L11.3391 134H4.42713L11.3391 101.936ZM29.0984 134.288C26.7304 134.288 24.8904 133.68 23.5784 132.464C22.2664 131.216 21.6104 129.28 21.6104 126.656C21.6104 124.448 22.0424 122.016 22.9064 119.36C23.7704 116.704 25.1784 114.416 27.1304 112.496C29.0824 110.544 31.5624 109.568 34.5704 109.568C38.0904 109.568 39.8504 111.104 39.8504 114.176C39.8504 115.968 39.3384 117.616 38.3144 119.12C37.2904 120.624 35.9304 121.84 34.2344 122.768C32.5384 123.664 30.7304 124.176 28.8104 124.304C28.7464 125.264 28.7144 125.904 28.7144 126.224C28.7144 127.792 28.9864 128.864 29.5304 129.44C30.0744 129.984 30.9544 130.256 32.1704 130.256C33.8984 130.256 35.3704 129.856 36.5864 129.056C37.8344 128.256 39.1944 127.04 40.6664 125.408H42.2984C38.7464 131.328 34.3464 134.288 29.0984 134.288ZM29.1944 122C30.3784 121.936 31.4984 121.52 32.5544 120.752C33.6424 119.984 34.5064 119.008 35.1464 117.824C35.8184 116.64 36.1544 115.392 36.1544 114.08C36.1544 112.768 35.7544 112.112 34.9544 112.112C33.8024 112.112 32.6664 113.12 31.5464 115.136C30.4584 117.152 29.6744 119.44 29.1944 122ZM48.6723 107.408C47.6163 107.408 46.7203 107.04 45.9843 106.304C45.2483 105.568 44.8803 104.672 44.8803 103.616C44.8803 102.56 45.2483 101.664 45.9843 100.928C46.7203 100.16 47.6163 99.776 48.6723 99.776C49.7283 99.776 50.6243 100.16 51.3603 100.928C52.1283 101.664 52.5123 102.56 52.5123 103.616C52.5123 104.672 52.1283 105.568 51.3603 106.304C50.6243 107.04 49.7283 107.408 48.6723 107.408ZM45.4083 134.288C43.8723 134.288 42.6243 133.808 41.6643 132.848C40.7363 131.888 40.2722 130.448 40.2722 128.528C40.2722 127.728 40.4002 126.688 40.6562 125.408L43.9203 110H50.8323L47.3763 126.32C47.2483 126.8 47.1843 127.312 47.1843 127.856C47.1843 128.496 47.3283 128.96 47.6163 129.248C47.9363 129.504 48.4483 129.632 49.1523 129.632C50.0803 129.632 50.9443 129.248 51.7443 128.48C52.5443 127.68 53.1203 126.656 53.4723 125.408H55.4883C54.3043 128.864 52.7843 131.216 50.9283 132.464C49.0723 133.68 47.2323 134.288 45.4083 134.288ZM56.7171 110H63.6291L63.0051 112.976C64.0931 112.016 65.0691 111.28 65.9331 110.768C66.8291 110.256 67.7891 110 68.8131 110C69.8371 110 70.6371 110.352 71.2131 111.056C71.8211 111.76 72.1251 112.608 72.1251 113.6C72.1251 114.528 71.8211 115.344 71.2131 116.048C70.6051 116.752 69.7571 117.104 68.6691 117.104C67.9651 117.104 67.4851 116.944 67.2291 116.624C67.0051 116.272 66.8291 115.776 66.7011 115.136C66.6051 114.72 66.5091 114.416 66.4131 114.224C66.3171 114.032 66.1411 113.936 65.8851 113.936C65.2131 113.936 64.6371 114.08 64.1571 114.368C63.7091 114.624 63.1171 115.088 62.3811 115.76L58.5411 134H51.6291L56.7171 110ZM77.26 134.288C75.436 134.288 73.916 133.664 72.7 132.416C71.484 131.168 70.876 129.216 70.876 126.56C70.876 124.192 71.34 121.712 72.268 119.12C73.228 116.496 74.636 114.288 76.492 112.496C78.38 110.672 80.62 109.76 83.212 109.76C84.524 109.76 85.5 109.984 86.14 110.432C86.78 110.88 87.1 111.472 87.1 112.208V112.544L87.628 110H94.54L91.084 126.32C90.956 126.8 90.892 127.312 90.892 127.856C90.892 128.496 91.036 128.96 91.324 129.248C91.644 129.504 92.156 129.632 92.86 129.632C93.308 129.632 93.66 129.568 93.916 129.44C93.212 131.232 92.54 132.496 91.9 133.232C91.26 133.936 90.332 134.288 89.116 134.288C87.804 134.288 86.732 133.904 85.9 133.136C85.1 132.336 84.604 131.232 84.412 129.824C82.46 132.8 80.076 134.288 77.26 134.288ZM80.38 129.632C81.18 129.632 81.964 129.264 82.732 128.528C83.532 127.76 84.076 126.72 84.364 125.408L86.668 114.56C86.668 114.144 86.508 113.744 86.188 113.36C85.868 112.944 85.372 112.736 84.7 112.736C83.42 112.736 82.268 113.488 81.244 114.992C80.22 116.464 79.42 118.256 78.844 120.368C78.268 122.448 77.98 124.288 77.98 125.888C77.98 127.488 78.204 128.512 78.652 128.96C79.132 129.408 79.708 129.632 80.38 129.632ZM121.641 134.288C119.689 134.288 118.249 133.776 117.321 132.752C116.425 131.696 115.977 130.4 115.977 128.864C115.977 128.192 116.057 127.44 116.217 126.608C116.377 125.744 116.537 124.912 116.697 124.112C116.889 123.312 117.016 122.8 117.081 122.576C117.337 121.456 117.577 120.352 117.801 119.264C118.025 118.176 118.137 117.296 118.137 116.624C118.137 114.992 117.561 114.176 116.409 114.176C115.577 114.176 114.841 114.592 114.201 115.424C113.561 116.224 113.049 117.28 112.665 118.592L109.401 134H102.488L107.577 110H114.489L113.961 112.496C115.561 110.704 117.433 109.808 119.577 109.808C121.209 109.808 122.505 110.256 123.465 111.152C124.425 112.048 124.905 113.408 124.905 115.232C124.905 116.16 124.793 117.2 124.569 118.352C124.345 119.472 124.025 120.848 123.609 122.48C123.353 123.472 123.113 124.448 122.889 125.408C122.697 126.336 122.601 127.072 122.601 127.616C122.601 128.256 122.745 128.752 123.033 129.104C123.321 129.456 123.817 129.632 124.521 129.632C125.481 129.632 126.249 129.296 126.825 128.624C127.401 127.92 127.977 126.848 128.552 125.408H130.569C129.385 128.928 128.009 131.296 126.441 132.512C124.905 133.696 123.305 134.288 121.641 134.288ZM134.307 134.288C132.483 134.288 130.963 133.664 129.747 132.416C128.531 131.168 127.923 129.216 127.923 126.56C127.923 124.192 128.387 121.712 129.315 119.12C130.275 116.496 131.683 114.288 133.539 112.496C135.427 110.672 137.667 109.76 140.259 109.76C141.571 109.76 142.547 109.984 143.187 110.432C143.827 110.88 144.147 111.472 144.147 112.208V112.544L144.675 110H151.587L148.131 126.32C148.003 126.8 147.939 127.312 147.939 127.856C147.939 128.496 148.083 128.96 148.371 129.248C148.691 129.504 149.203 129.632 149.907 129.632C150.355 129.632 150.707 129.568 150.963 129.44C150.259 131.232 149.587 132.496 148.947 133.232C148.307 133.936 147.379 134.288 146.163 134.288C144.851 134.288 143.779 133.904 142.947 133.136C142.147 132.336 141.651 131.232 141.459 129.824C139.507 132.8 137.123 134.288 134.307 134.288ZM137.427 129.632C138.227 129.632 139.011 129.264 139.779 128.528C140.579 127.76 141.123 126.72 141.411 125.408L143.715 114.56C143.715 114.144 143.555 113.744 143.235 113.36C142.915 112.944 142.419 112.736 141.747 112.736C140.467 112.736 139.315 113.488 138.291 114.992C137.267 116.464 136.467 118.256 135.891 120.368C135.315 122.448 135.027 124.288 135.027 125.888C135.027 127.488 135.251 128.512 135.699 128.96C136.179 129.408 136.755 129.632 137.427 129.632ZM176.767 101.024C174.335 101.824 172.447 103.152 171.103 105.008C169.791 106.832 169.135 109.104 169.135 111.824C169.135 113.04 169.247 113.872 169.471 114.32C169.695 114.768 169.807 115.04 169.807 115.136C166.383 115.136 164.671 113.68 164.671 110.768C164.671 108.784 165.423 106.8 166.927 104.816C168.463 102.8 170.415 101.168 172.783 99.92C175.183 98.64 177.567 98 179.935 98C181.119 98 182.335 98.224 183.583 98.672L182.479 123.968L193.039 98.672H199.951L194.911 134H187.999L191.071 112.448L182.047 134H175.471L176.431 112.352L168.415 134H164.575L176.767 101.024ZM216.469 106.688C215.733 106.688 215.045 106.608 214.405 106.448C213.765 106.288 212.997 106.048 212.101 105.728C211.173 105.44 210.469 105.232 209.989 105.104C209.509 104.976 208.981 104.912 208.405 104.912C207.221 104.912 206.165 105.328 205.237 106.16L204.997 106.064C205.733 104.528 206.789 103.36 208.165 102.56C209.541 101.76 211.157 101.36 213.013 101.36C213.813 101.36 214.533 101.44 215.173 101.6C215.845 101.728 216.581 101.936 217.381 102.224C218.117 102.48 218.741 102.672 219.253 102.8C219.765 102.896 220.325 102.944 220.933 102.944C222.149 102.944 223.157 102.576 223.957 101.84L224.197 101.888C224.069 102.624 223.605 103.376 222.805 104.144C222.037 104.88 221.077 105.488 219.925 105.968C218.805 106.448 217.653 106.688 216.469 106.688ZM204.901 134.288C203.077 134.288 201.557 133.664 200.341 132.416C199.125 131.168 198.517 129.216 198.517 126.56C198.517 124.192 198.981 121.712 199.909 119.12C200.869 116.496 202.277 114.288 204.133 112.496C206.021 110.672 208.261 109.76 210.853 109.76C212.165 109.76 213.141 109.984 213.781 110.432C214.421 110.88 214.741 111.472 214.741 112.208V112.544L215.269 110H222.181L218.725 126.32C218.597 126.8 218.533 127.312 218.533 127.856C218.533 129.232 219.189 129.92 220.501 129.92C221.397 129.92 222.165 129.504 222.805 128.672C223.477 127.84 224.005 126.752 224.389 125.408H226.405C225.221 128.864 223.749 131.216 221.989 132.464C220.261 133.68 218.517 134.288 216.757 134.288C215.413 134.288 214.325 133.92 213.493 133.184C212.693 132.416 212.213 131.312 212.053 129.872C211.125 131.184 210.085 132.256 208.933 133.088C207.813 133.888 206.469 134.288 204.901 134.288ZM208.021 129.632C208.821 129.632 209.605 129.264 210.373 128.528C211.173 127.76 211.717 126.72 212.005 125.408L214.309 114.56C214.309 114.144 214.149 113.744 213.829 113.36C213.509 112.944 213.013 112.736 212.341 112.736C211.061 112.736 209.909 113.488 208.885 114.992C207.861 116.464 207.061 118.256 206.485 120.368C205.909 122.448 205.621 124.288 205.621 125.888C205.621 127.488 205.845 128.512 206.293 128.96C206.773 129.408 207.349 129.632 208.021 129.632ZM231.414 134.192C229.046 134.192 227.174 133.584 225.798 132.368C224.422 131.152 223.734 129.232 223.734 126.608C223.734 124.4 224.166 121.984 225.03 119.36C225.894 116.704 227.302 114.416 229.254 112.496C231.206 110.544 233.702 109.568 236.742 109.568C240.518 109.568 242.55 111.728 242.838 116.048C243.542 115.888 244.166 115.504 244.71 114.896C245.254 114.256 245.766 113.536 246.246 112.736H247.782C246.918 114.464 246.15 115.824 245.478 116.816C244.806 117.776 243.926 118.56 242.838 119.168C242.646 122.176 242.022 124.816 240.966 127.088C239.942 129.36 238.598 131.12 236.934 132.368C235.27 133.584 233.43 134.192 231.414 134.192ZM233.334 129.872C234.518 129.872 235.622 128.912 236.646 126.992C237.67 125.072 238.374 122.704 238.758 119.888C237.99 119.6 237.606 118.88 237.606 117.728C237.606 116.48 238.054 115.648 238.95 115.232C238.886 114.208 238.71 113.504 238.422 113.12C238.166 112.704 237.734 112.496 237.126 112.496C236.07 112.496 235.062 113.264 234.102 114.8C233.142 116.304 232.358 118.144 231.75 120.32C231.174 122.464 230.886 124.352 230.886 125.984C230.886 127.52 231.062 128.56 231.414 129.104C231.766 129.616 232.406 129.872 233.334 129.872Z" fill="#467302"/>
<g clip-path="url(#clip0)">
<path d="M115 73.3333C116.841 73.3333 118.333 71.8409 118.333 70C118.333 68.159 116.841 66.6667 115 66.6667C113.159 66.6667 111.667 68.159 111.667 70C111.667 71.8409 113.159 73.3333 115 73.3333Z" stroke="#467302" stroke-width="6.66667" stroke-linecap="round" stroke-linejoin="round"/>
<path d="M151.667 73.3333C153.508 73.3333 155 71.8409 155 70C155 68.159 153.508 66.6667 151.667 66.6667C149.826 66.6667 148.333 68.159 148.333 70C148.333 71.8409 149.826 73.3333 151.667 73.3333Z" stroke="#467302" stroke-width="6.66667" stroke-linecap="round" stroke-linejoin="round"/>
<path d="M88.3333 3.33333H101.667L110.6 47.9667C110.905 49.5013 111.74 50.8799 112.958 51.861C114.177 52.8421 115.702 53.3633 117.267 53.3333H149.667C151.231 53.3633 152.756 52.8421 153.975 51.861C155.194 50.8799 156.028 49.5013 156.333 47.9667L161.667 20H105" stroke="#467302" stroke-width="6.66667" stroke-linecap="round" stroke-linejoin="round"/>
</g>
<defs>
<clipPath id="clip0">
<rect width="80" height="80" fill="white" transform="translate(85)"/>
</clipPath>
</defs>
</svg>
