<svg width="26" height="26" viewBox="0 0 26 26" fill="none" xmlns="http://www.w3.org/2000/svg">
<path d="M23.3462 14.8H14.6924V23.8C14.6924 24.79 13.9135 25.6 12.9616 25.6C12.0097 25.6 11.2308 24.79 11.2308 23.8V14.8H2.57696C1.62504 14.8 0.846191 13.99 0.846191 13C0.846191 12.01 1.62504 11.2 2.57696 11.2H11.2308V2.19996C11.2308 1.20996 12.0097 0.399963 12.9616 0.399963C13.9135 0.399963 14.6924 1.20996 14.6924 2.19996V11.2H23.3462C24.2981 11.2 25.077 12.01 25.077 13C25.077 13.99 24.2981 14.8 23.3462 14.8Z" fill="white"/>
</svg>
